<svg data-v-fde0c5aa="" xmlns="http://www.w3.org/2000/svg" viewBox="0 0 300 300" class="iconLeft"><!----><defs data-v-fde0c5aa=""><!----></defs><rect data-v-fde0c5aa="" fill="#01252C" x="0" y="0" width="300px" height="300px" class="logo-background-square"></rect><defs data-v-fde0c5aa=""><!----></defs><g data-v-fde0c5aa="" id="c4334cfe-c7fe-4e8c-b38e-19c604133318" fill="#FFFFFF" transform="matrix(2.6926219795657946,0,0,2.6926219795657946,90.14940019741964,132.92877688066247)"><path d="M0.16 6.64L0.16 1.96L2.10 1.96L2.10 5.85L4.05 5.85L4.05 1.96L5.69 1.96L5.69 7.51L5.02 7.51L5.02 7.75L5.69 7.75L5.69 11.73L4.08 11.73L4.08 11.73Q4.05 11.73 4.05 11.70L4.05 11.70L4.05 7.48L2.10 7.48L2.10 11.70L2.10 11.70Q2.10 11.73 2.06 11.73L2.06 11.73L0.44 11.73L0.44 6.64L0.16 6.64ZM5.69 7.75L5.69 7.51L6.56 7.51L6.56 7.75L5.69 7.75ZM6.54 8.85L6.54 1.91L8.49 1.91L8.49 5.94L8.11 5.94L8.11 10.10L11.01 10.10L11.01 10.97L10.44 10.97L10.44 11.17L11.01 11.17L11.01 11.73L9.13 11.73L9.13 11.58L6.56 11.58L6.56 11.58Q6.54 11.42 6.54 11.33L6.54 11.33L6.54 9.14L7.03 9.14L7.03 8.85L6.54 8.85ZM11.01 11.17L11.01 10.97L11.72 10.97L11.72 11.17L11.01 11.17ZM11.75 7.49L11.75 1.96L15.10 1.96L15.10 1.96Q16.78 1.96 17.27 3.14L17.27 3.14L17.27 3.14Q17.49 3.75 17.49 4.53L17.49 4.53L17.49 4.94L17.49 4.94Q17.49 6.36 16.86 7.11L16.86 7.11L16.15 7.11L16.15 7.47L17.24 7.47L17.24 9.81L16.60 9.81L16.60 10.17L17.57 10.17L17.57 11.55L15.53 11.55L15.53 9.34L14.75 9.34L14.75 7.92L13.38 7.92L13.38 10.34L13.67 10.34L13.67 11.73L11.79 11.73L11.79 11.73Q11.75 11.73 11.75 11.70L11.75 11.70L11.75 7.77L12.59 7.77L12.59 7.49L11.75 7.49ZM14.48 3.55L13.67 3.55L13.67 6.31L14.14 6.31L14.14 6.31Q15.18 6.31 15.35 6.11L15.35 6.11L15.35 6.11Q15.52 6.00 15.61 5.67L15.61 5.67L16.34 5.67L16.34 5.32L15.68 5.32L15.68 5.35L15.68 5.35Q15.63 5.67 15.60 5.67L15.60 5.67L14.66 5.67L14.66 5.32L15.65 5.32L15.65 5.32Q15.68 5.32 15.68 5.29L15.68 5.29L15.68 5.29Q15.70 4.87 15.70 4.81L15.70 4.81L15.70 4.81Q15.70 3.90 15.38 3.69L15.38 3.69L15.38 3.69Q15.13 3.55 14.48 3.55L14.48 3.55ZM19.58 1.70L19.16 4.16L18.96 4.16L18.53 1.70L18.53 1.70Q18.50 1.54 18.50 1.48L18.50 1.48L18.50 1.48Q18.50 1.22 18.65 1.09L18.65 1.09L18.65 1.09Q18.79 0.95 19.05 0.95L19.05 0.95L19.05 0.95Q19.32 0.95 19.47 1.08L19.47 1.08L19.47 1.08Q19.61 1.22 19.61 1.47L19.61 1.47L19.61 1.47Q19.61 1.52 19.58 1.70L19.58 1.70ZM23.51 1.96L23.51 1.96L23.51 1.96Q25.14 1.96 25.69 3.01L25.69 3.01L25.69 3.01Q26.07 3.80 26.07 4.56L26.07 4.56L26.06 4.56L26.06 4.56Q24.94 4.66 24.53 4.66L24.53 4.66L24.53 4.66Q24.53 4.12 24.20 3.75L24.20 3.75L24.20 3.75Q23.88 3.57 23.62 3.57L23.62 3.57L23.34 3.57L23.34 3.57Q22.65 3.57 22.50 4.11L22.50 4.11L22.50 4.11Q22.46 4.27 22.46 4.35L22.46 4.35L22.46 4.50L22.46 4.50Q22.46 5.26 23.27 5.61L23.27 5.61L23.27 5.61Q23.34 5.67 24.39 6.12L24.39 6.12L24.39 6.12Q24.95 6.38 25.43 6.76L25.43 6.76L25.43 6.77L23.71 6.77L23.71 6.97L25.98 6.97L25.98 7.24L26.26 7.24L26.26 10.21L25.70 10.21L25.70 11.73L21.36 11.73L21.36 10.21L20.33 10.21L20.33 9.18L20.91 9.18L20.91 8.83L20.33 8.83L20.33 8.59L22.32 8.59L22.32 10.21L24.36 10.21L24.36 7.77L22.83 7.77L22.83 6.97L20.94 6.97L20.94 6.77L21.85 6.77L21.85 6.76L21.85 6.76Q20.65 5.96 20.65 4.50L20.65 4.50L20.65 4.37L20.65 4.37Q20.65 3.14 21.40 2.51L21.40 2.51L21.40 2.51Q22.09 1.96 23.51 1.96ZM25.98 6.97L25.98 6.77L26.67 6.77L26.67 6.97L25.98 6.97ZM19.67 9.18L19.67 8.83L20.33 8.83L20.33 9.18L19.67 9.18ZM33.55 1.96L33.55 1.96L33.55 1.96Q35.18 1.96 35.73 3.01L35.73 3.01L35.73 3.01Q36.11 3.80 36.11 4.56L36.11 4.56L36.10 4.56L36.10 4.56Q34.99 4.66 34.58 4.66L34.58 4.66L34.58 4.66Q34.58 4.12 34.24 3.75L34.24 3.75L34.24 3.75Q33.93 3.57 33.66 3.57L33.66 3.57L33.39 3.57L33.39 3.57Q32.69 3.57 32.54 4.11L32.54 4.11L32.54 4.11Q32.50 4.27 32.50 4.35L32.50 4.35L32.50 4.50L32.50 4.50Q32.50 5.26 33.31 5.61L33.31 5.61L33.31 5.61Q33.38 5.67 34.43 6.12L34.43 6.12L34.43 6.12Q34.99 6.38 35.47 6.76L35.47 6.76L35.47 6.77L33.76 6.77L33.76 6.97L36.02 6.97L36.02 7.24L36.31 7.24L36.31 10.21L35.75 10.21L35.75 11.73L31.40 11.73L31.40 10.21L30.37 10.21L30.37 9.18L30.95 9.18L30.95 8.83L30.37 8.83L30.37 8.59L32.36 8.59L32.36 10.21L34.40 10.21L34.40 7.77L32.87 7.77L32.87 6.97L30.98 6.97L30.98 6.77L31.90 6.77L31.90 6.76L31.90 6.76Q30.69 5.96 30.69 4.50L30.69 4.50L30.69 4.37L30.69 4.37Q30.69 3.14 31.45 2.51L31.45 2.51L31.45 2.51Q32.13 1.96 33.55 1.96ZM36.02 6.97L36.02 6.77L36.71 6.77L36.71 6.97L36.02 6.97ZM29.72 9.18L29.72 8.83L30.37 8.83L30.37 9.18L29.72 9.18ZM34.10 8.83L34.10 8.83L34.30 8.83L34.30 8.83Q34.34 8.83 34.34 8.86L34.34 8.86L34.34 8.91L34.16 8.91L34.16 8.97L34.32 8.97L34.32 9.02L34.32 9.02Q34.32 9.05 34.29 9.05L34.29 9.05L34.16 9.05L34.16 9.12L34.34 9.12L34.34 9.17L34.34 9.17Q34.34 9.19 34.30 9.19L34.30 9.19L34.10 9.19L34.10 9.19Q34.06 9.19 34.06 9.17L34.06 9.17L34.06 8.86L34.06 8.86Q34.07 8.83 34.10 8.83ZM34.02 9.31L34.02 9.31L34.08 9.31L34.08 9.31Q34.09 9.31 34.19 9.43L34.19 9.43L34.19 9.43Q34.24 9.31 34.27 9.31L34.27 9.31L34.32 9.31L34.32 9.31Q34.35 9.31 34.35 9.34L34.35 9.34L34.35 9.34Q34.21 9.50 34.21 9.68L34.21 9.68L34.16 9.68L34.16 9.68Q34.13 9.68 34.11 9.49L34.11 9.49L34.11 9.49Q34.02 9.36 34.02 9.31ZM33.97 9.79L33.97 9.79L34.03 9.79L34.03 9.79Q34.07 9.79 34.11 10.00L34.11 10.00L34.15 10.00L34.15 10.00Q34.19 9.79 34.22 9.79L34.22 9.79L34.29 9.79L34.29 9.79Q34.32 9.80 34.32 9.82L34.32 9.82L34.32 10.12L34.32 10.12Q34.32 10.16 34.29 10.16L34.29 10.16L34.24 10.16L34.24 9.95L34.22 9.95L34.16 10.16L34.11 10.16L34.11 10.16Q34.08 10.16 34.03 9.95L34.03 9.95L34.02 9.95L34.02 10.16L33.97 10.16L33.97 10.16Q33.93 10.16 33.93 10.12L33.93 10.12L33.93 9.82L33.93 9.82Q33.94 9.79 33.97 9.79ZM35.84 10.62L35.84 10.29L36.00 10.29L36.00 10.29Q36.13 10.29 36.13 10.42L36.13 10.42L36.13 10.42Q36.10 10.42 36.10 10.45L36.10 10.45L36.10 10.45Q36.15 10.51 36.15 10.56L36.15 10.56L36.15 10.56Q36.11 10.66 35.97 10.66L35.97 10.66L35.88 10.66L35.88 10.66Q35.84 10.66 35.84 10.62L35.84 10.62ZM36.03 10.37L35.94 10.37L35.94 10.43L36.00 10.43L36.00 10.43Q36.03 10.43 36.03 10.40L36.03 10.40L36.03 10.37ZM36.02 10.49L35.94 10.49L35.94 10.58L36.02 10.58L36.02 10.58Q36.05 10.58 36.05 10.54L36.05 10.54L36.05 10.53L36.05 10.53Q36.05 10.49 36.02 10.49L36.02 10.49ZM35.84 11.10L35.84 10.77L35.91 10.77L35.91 10.77Q35.94 10.77 36.05 10.99L36.05 10.99L36.07 10.99L36.07 10.77L36.15 10.77L36.15 11.10L36.15 11.10Q36.15 11.14 36.11 11.14L36.11 11.14L36.08 11.14L36.08 11.14Q36.07 11.14 35.92 10.93L35.92 10.93L35.92 11.10L35.92 11.10Q35.92 11.14 35.89 11.14L35.89 11.14L35.88 11.14L35.88 11.14Q35.84 11.14 35.84 11.10L35.84 11.10ZM36.81 7.25L36.81 1.90L39.35 1.90L39.35 1.90Q41.57 1.90 42.19 3.05L42.19 3.05L42.19 3.05Q42.55 3.77 42.55 4.89L42.55 4.89L42.55 4.89Q42.53 5.10 42.53 5.30L42.53 5.30L43.94 5.30L43.94 5.78L42.49 5.78L42.49 5.76L42.49 5.76Q42.52 5.33 42.52 5.30L42.52 5.30L41.70 5.30L41.70 5.78L42.49 5.78L42.49 7.44L40.87 7.44L40.87 8.02L40.85 8.02L40.85 8.02Q38.98 8.03 38.73 8.03L38.73 8.03L38.73 8.90L38.38 8.90L38.38 10.44L38.58 10.44L38.58 11.73L37.04 11.73L37.04 11.12L36.83 11.12L36.83 10.62L36.83 10.62Q36.83 9.74 36.81 7.76L36.81 7.76L37.74 7.76L37.74 7.25L36.81 7.25ZM39.56 3.57L38.73 3.57L38.73 6.36L39.31 6.36L39.31 5.96L40.48 5.96L40.48 5.96Q40.70 5.75 40.70 4.76L40.70 4.76L40.70 4.76Q40.70 3.83 40.28 3.68L40.28 3.68L40.28 3.68Q40.12 3.57 39.56 3.57L39.56 3.57ZM45.12 7.57L46.80 1.96L48.45 1.96L48.45 1.96Q48.48 2.10 50.05 7.29L50.05 7.29L50.35 7.29L50.35 10.51L49.67 10.51L49.67 10.76L50.35 10.76L50.35 11.45L48.53 11.45L48.53 9.47L46.31 9.47L46.31 10.32L45.40 10.32L45.40 11.73L43.75 11.73L43.75 11.63L43.88 11.63L43.88 10.32L44.56 10.32L44.56 7.57L45.12 7.57ZM47.61 4.71L47.57 4.71L47.57 4.72L47.57 4.72Q47.36 5.89 46.75 8.40L46.75 8.40L48.28 8.40L48.28 7.29L48.15 7.29L48.15 7.29Q47.61 4.92 47.61 4.71L47.61 4.71ZM43.27 7.57L43.27 7.28L44.56 7.28L44.56 7.57L43.27 7.57ZM48.53 11.73L48.53 11.57L50.72 11.57L50.72 11.73L48.53 11.73ZM54.26 1.93L54.26 1.93L54.26 1.93Q56.31 1.93 56.83 3.22L56.83 3.22L56.83 3.22Q56.99 3.53 56.99 3.63L56.99 3.63L56.13 3.63L56.13 3.89L57.06 3.89L57.06 3.88L57.06 3.88Q57.06 3.81 56.99 3.63L56.99 3.63L58.57 3.63L58.57 3.89L57.07 3.89L57.07 3.91L57.07 3.91Q57.19 4.46 57.24 5.09L57.24 5.09L57.24 5.09Q57.24 5.13 55.44 5.22L55.44 5.22L55.44 5.21L55.44 5.21Q55.44 3.58 54.33 3.58L54.33 3.58L54.12 3.58L54.12 3.58Q53.29 3.58 53.10 4.29L53.10 4.29L53.10 4.29Q52.96 4.89 52.96 5.87L52.96 5.87L52.96 7.21L52.94 7.40L52.31 7.40L52.31 7.71L52.94 7.71L52.94 10.08L55.57 10.08L55.57 7.62L57.09 7.62L57.09 10.08L56.25 10.08L56.25 11.60L54.49 11.60L54.49 11.73L53.12 11.73L53.12 11.60L51.73 11.60L51.73 10.84L52.66 10.84L52.66 10.51L51.27 10.51L51.27 9.39L50.68 9.39L50.68 8.00L51.00 8.00L51.00 8.00Q50.98 7.16 50.98 6.66L50.98 6.66L50.98 6.66Q50.98 4.42 51.19 3.84L51.19 3.84L51.19 3.84Q51.40 3.17 51.85 2.69L51.85 2.69L51.85 2.69Q52.66 1.93 54.26 1.93ZM58.25 6.80L58.25 2.00L63.04 2.00L63.04 3.60L63.04 3.60Q63.04 3.63 63.01 3.63L63.01 3.63L60.16 3.63L60.16 5.74L62.71 5.74L62.71 5.76L62.71 5.76Q62.71 5.84 62.69 6.79L62.69 6.79L62.69 6.79Q62.67 6.79 62.67 6.80L62.67 6.80L62.78 6.80L62.78 7.29L60.57 7.29L60.57 9.29L59.98 9.29L59.98 9.49L60.57 9.49L60.57 10.10L63.08 10.10L63.08 10.32L62.88 10.32L62.88 11.52L59.88 11.52L59.88 11.73L58.46 11.73L58.46 8.24L58.25 8.24L58.25 7.01L56.69 7.01L56.69 6.80L58.25 6.80ZM59.06 6.80L58.26 6.80L58.26 7.01L59.06 7.01L59.06 6.80Z"></path></g><defs data-v-fde0c5aa=""><!----></defs><g data-v-fde0c5aa="" id="c1c7af3e-7e17-4af8-8de2-3ecab7023609" stroke="none" fill="#88DF95" transform="matrix(0.0008292829381837023,0,0,0.0008292829381837023,33.91140466785526,125.12199938215377)"><path d="M31725 40975l-259-449h-1l-259-448h-1037l-259 448c-4 7-8 14-13 21l-247 428 259 449h1l259 448h1037l259-448c4-7 8-14 13-21l247-428zm-3686 9248v-1693c0-221 179-400 400-400h3122c221 0 400 179 400 400v447h3093l8745-5049 5049-8745v-3133h-591c-221 0-400-179-400-400v-3122c0-221 179-400 400-400h1693c221 0 400 179 400 400v3122c0 221-179 400-400 400h-302v1747l2118-3668-5671-9823-15094-44-267 462h1l-374 648c-74 128-208 199-345 199v1h-1497c-158 0-295-92-360-225l-360-623c-4-7-8-15-12-22l-362-628c-74-129-68-283 3-402l372-644h-1l374-648c74-128 208-199 345-199v-1h1497c158 0 295 92 360 225l360 623c4 7 8 15 12 22l239 415 14648 43-4750-8227H24947l-8745 5049-2525 4373c-110 191-353 256-544 147-191-110-256-353-147-544l1836-3180-3669 2118v21481l17815-162 240-415c4-7 8-15 12-22l360-623c65-133 202-225 360-225h1497v1c138 0 271 71 345 199l374 648h-1l1 1 371 643c71 120 78 273 3 402l-362 628c-4 7-8 15-12 22l-360 623c-65 133-202 225-360 225h-1497v-1c-138 0-271-71-345-199l-374-648h1l-266-462-16929 154 17976 10378 3668-2118h-1707v447c0 221-179 400-400 400h-3122c-221 0-400-179-400-400zm800-1293v893h2322v-893h-2322zm20711-20002h-893v2322h893v-2322zM30558 16712c-138 1-250-110-251-247-1-138 110-250 247-251l5186-53c138-1 250 110 251 247 1 138-110 250-247 251l-5186 53zm1878 1138c-138 1-249-111-250-248-1-138 111-249 248-250l9578-53c138-1 249 111 250 248 1 138-111 249-248 250l-9578 53zm-16817-2102l2924-5064c74-128 208-200 345-200v-2h5851l5063-2923c191-110 434-44 544 147s44 434-147 544l-3866 2232h13958L29877 4470c-119-68-160-221-92-340s221-160 340-92l18848 10882c119 68 160 221 92 340s-221 160-340 92l-6856-3959 4687 8119 5550 16c220 0 398 178 398 398s-178 398-398 398l-5090-15 5555 9621c74 129 68 283-3 402l-2920 5057v5851c0 162-96 301-234 364l-5032 2905-2514 4354 10416-6014c119-69 272-28 341 91s28 272-91 341l-11204 6469c-5 3-9 5-14 7l-11192 6461c-119 68-271 27-340-92-68-119-27-271 92-340l10414-6012h-5029l-5063 2923c-129 74-283 68-402-3L10554 41585c-128-74-200-208-200-345h-2V19015c0-162 96-301 234-364l5032-2905zm33229 21028l-3669 6355 3669-2118v-4237zM36647 48977h4237l2118-3669-6355 3669zM23354 11282h-4237l-2118 3669 6355-3669zM10680 47546l-395 696-696-395 395-696 696 395zm11132 6317l-395 696-696-395 395-696 696 395zm-2783-1579l-395 696-696-395 395-696 696 395zm-2783-1579l-395 696-696-395 395-696 696 395zm-2783-1579l-395 696-696-395 395-696 696 395zM33208 3873l-217-125-250 433 866 500 250-433-650-375zm10575 6683l217 125 250-433-866-500-250 433 650 375zm-1732-1000l217 125 250-433-866-500-250 433 650 375zm-1732-1000l217 125 250-433-866-500-250 433 650 375zm-1732-1000l217 125 250-433-866-500-250 433 650 375zm-1732-1000l217 125 250-433-866-500-250 433 650 375zm-1732-1000l217 125 250-433-866-500-250 433 650 375zM18921 49321c119 69 160 222 91 341s-222 160-341 91L7467 43284c-80-46-124-130-124-216h-1V30130c0-138 112-250 250-250s250 112 250 250v12794l11079 6397zm7791-20216c-79 294-116 589-117 893h800c1-235 30-461 91-689l-774-204zm4156 4235c294-73 576-184 840-331l-390-698c-204 113-418 197-644 253l194 776zm1565-869c217-211 405-448 561-707l-689-407 1-1c-121 201-263 380-432 544l559 572zm918-1536c82-294 124-587 129-891l-800-10c-4 236-36 460-100 688l771 214zm23-1788c-74-293-188-574-336-838l-696 395c114 202 200 418 258 643l775-199zm-879-1559c-211-215-451-403-711-556l-403 691c201 120 381 261 545 428l569-562zm-1542-908c-294-80-588-120-892-123l-5 800c236 2 461 33 688 95l209-772zm-1788-11c-293 76-573 192-836 342l399 694c202-115 416-203 641-262l-204-774zm-1554 889c-213 212-401 455-552 715l694 399c118-202 258-383 424-548l-566-566zm7815 17065l-12-800 800-12 12 800-800 12zm-15998 244l-12-800 800-12 12 800-800 12zm1600-24l-12-800 800-12 12 800-800 12zm1600-24l-12-800 800-12 12 800-800 12zm1600-24l-12-800 800-12 12 800-800 12zm1600-24l-12-800 800-12 12 800-800 12zm1600-24l-12-800 800-12 12 800-800 12zm1600-24l-12-800 800-12 12 800-800 12zm1600-24l-12-800 800-12 12 800-800 12zm1600-24l-12-800 800-12 12 800-800 12zm1600-24l-12-800 800-12 12 800-800 12zM16351 19758l241-417h-1l243-421c74-128 208-199 345-199v-1h973c158 0 295 92 360 225l229 396c4 7 8 15 12 22l231 401c74 129 68 283-3 402l-241 417h1l-243 421c-74 128-208 199-345 199v1h-973c-158 0-295-92-360-225l-229-396c-4-7-8-15-12-22l-231-401c-74-129-68-283 3-402zm930-18l-128 222 116 201c4 7 9 14 13 21l128 221h514l128-221h1l128-222-116-201c-4-7-9-14-13-21l-128-221h-514l-128 221h-1zm2762-9l284-493c4-7 8-14 13-21l274-475c74-128 208-200 345-200v-2h1148c162 0 301 96 364 234l268 464h1l287 497c75 130 69 284-3 404l-284 493c-4 7-8 14-13 21l-274 475c-74 128-208 200-345 200v2h-1148c-162 0-301-96-364-234l-268-464h-1l-287-497c-75-130-69-284 3-404zm975-93l-172 297 172 297h-1l171 297h690l159-275c4-7 8-15 12-22l172-297-172-297h1l-171-297h-690l-159 275c-4 7-8 15-12 22zm2718 67l328-568h-1l331-573c74-128 208-199 345-199v-1h1322c158 0 295 92 360 225l316 547c4 7 8 15 12 22l319 552c74 129 68 283-3 402l-328 568h1l-331 573c-74 128-208 199-345 199v1h-1322c-158 0-295-92-360-225l-316-547c-4-7-8-15-12-22l-319-552c-74-129-68-283 3-402zm1017-169l-215 373 203 352c4 7 9 13 13 21l215 373h863l215-373h1l215-373-203-352c-4-7-9-14-13-21l-215-373h-863l-215 373h-1zm3736-102l-259 449 247 428c4 7 9 14 13 21l259 448h1037l259-448h1l259-449-247-428c-4-7-9-14-13-21l-259-448h-1037l-259 448h-1zm-4995 10573l3144-5446c46-80 130-125 216-125v-1h6293c101 0 188 60 227 146l3135 5430c46 81 42 177-2 252l-3144 5446c-46 80-130 125-216 125v1h-6293c-101 0-188-60-227-146l-3135-5430c-46-81-42-177 2-252zm2003-2473l-1502 2601 3002 5200h6007l3002-5200-3002-5200h-6007l-1500 2599zm-4570 2396l4363-7557c74-128 208-199 345-199v-1h8731c158 0 295 92 360 225l4351 7536c75 130 69 284-3 404l-4363 7557c-74 128-208 199-345 199v1h-8731c-158 0-295-92-360-225l-4351-7536c-75-130-69-284 3-404zm2871-3376l-2067 3580 4134 7161h8271l4134-7161-4134-7161h-8271l-2067 3580z"></path></g><!----></svg>